<?xml version="1.0" encoding="UTF-8" standalone="no"?>
<!DOCTYPE svg PUBLIC "-//W3C//DTD SVG 1.1//EN" "http://www.w3.org/Graphics/SVG/1.1/DTD/svg11.dtd">
<svg width="100%" height="100%" viewBox="0 0 1000 1000" version="1.1" xmlns="http://www.w3.org/2000/svg" xmlns:xlink="http://www.w3.org/1999/xlink" xml:space="preserve" xmlns:serif="http://www.serif.com/" style="fill-rule:evenodd;clip-rule:evenodd;stroke-linecap:round;stroke-linejoin:round;stroke-miterlimit:1.5;">
    <g transform="matrix(0.994487,-0.104858,0.104858,0.994487,-94.013334,48.040307)">
        <path d="M923.276,183.448L923.276,860.431C923.276,904.775 887.275,940.776 842.931,940.776L200.172,940.776C155.829,940.776 119.828,904.775 119.828,860.431L119.828,183.448C119.828,139.105 155.829,103.103 200.172,103.103L842.931,103.103C887.275,103.103 923.276,139.105 923.276,183.448Z" style="fill:rgb(252,255,255);stroke:rgb(142,142,142);stroke-opacity:0.24;stroke-width:4.17px;"/>
    </g>
    <g transform="matrix(1,0,0,1,24.002123,7.817214)">
        <g transform="matrix(1,0,0,1,-2.643528,-61.595632)">
            <path d="M923.276,183.448L923.276,860.431C923.276,904.775 887.275,940.776 842.931,940.776L200.172,940.776C155.829,940.776 119.828,904.775 119.828,860.431L119.828,183.448C119.828,139.105 155.829,103.103 200.172,103.103L842.931,103.103C887.275,103.103 923.276,139.105 923.276,183.448Z" style="fill:rgb(252,255,255);stroke:rgb(141,141,141);stroke-opacity:0.24;stroke-width:4.17px;"/>
        </g>
        <g transform="matrix(1,0,0,0.884146,1.390949,121.707249)">
            <path d="M860.69,164.448C860.69,176.933 851.728,187.069 840.69,187.069L194.345,187.069C183.307,187.069 174.345,176.933 174.345,164.448C174.345,151.964 183.307,141.828 194.345,141.828L840.69,141.828C851.728,141.828 860.69,151.964 860.69,164.448Z" style="fill:rgb(243,243,243);stroke:black;stroke-opacity:0;stroke-width:0.44px;"/>
        </g>
        <g transform="matrix(1,0,0,0.884146,1.390949,246.83121)">
            <path d="M860.69,164.448C860.69,176.933 851.728,187.069 840.69,187.069L194.345,187.069C183.307,187.069 174.345,176.933 174.345,164.448C174.345,151.964 183.307,141.828 194.345,141.828L840.69,141.828C851.728,141.828 860.69,151.964 860.69,164.448Z" style="fill:rgb(243,243,243);stroke:black;stroke-opacity:0;stroke-width:0.44px;"/>
        </g>
        <g transform="matrix(1,0,0,0.884146,1.390949,361.141567)">
            <path d="M860.69,164.448C860.69,176.933 851.728,187.069 840.69,187.069L194.345,187.069C183.307,187.069 174.345,176.933 174.345,164.448C174.345,151.964 183.307,141.828 194.345,141.828L840.69,141.828C851.728,141.828 860.69,151.964 860.69,164.448Z" style="fill:rgb(243,243,243);stroke:black;stroke-opacity:0;stroke-width:0.44px;"/>
        </g>
        <g transform="matrix(1,0,0,0.884146,1.390949,594.189815)">
            <path d="M860.69,164.448C860.69,176.933 851.728,187.069 840.69,187.069L194.345,187.069C183.307,187.069 174.345,176.933 174.345,164.448C174.345,151.964 183.307,141.828 194.345,141.828L840.69,141.828C851.728,141.828 860.69,151.964 860.69,164.448Z" style="fill:rgb(243,243,243);stroke:black;stroke-opacity:0;stroke-width:0.44px;"/>
        </g>
        <g transform="matrix(1,0,0,0.884146,1.390949,483.624274)">
            <path d="M860.69,164.448C860.69,176.933 851.728,187.069 840.69,187.069L194.345,187.069C183.307,187.069 174.345,176.933 174.345,164.448C174.345,151.964 183.307,141.828 194.345,141.828L840.69,141.828C851.728,141.828 860.69,151.964 860.69,164.448Z" style="fill:rgb(243,243,243);stroke:black;stroke-opacity:0;stroke-width:0.44px;"/>
        </g>
        <g transform="matrix(1,0,0,0.884146,1.390949,7.412977)">
            <path d="M860.69,164.448C860.69,176.933 851.728,187.069 840.69,187.069L194.345,187.069C183.307,187.069 174.345,176.933 174.345,164.448C174.345,151.964 183.307,141.828 194.345,141.828L840.69,141.828C851.728,141.828 860.69,151.964 860.69,164.448Z" style="fill:rgb(242,242,242);stroke:black;stroke-opacity:0;stroke-width:0.44px;"/>
        </g>
        <g transform="matrix(0.544512,0,0,0.544512,-18.662162,377.007267)">
            <g transform="matrix(833.415603,0,0,833.415603,1610.157664,450.431034)">
            </g>
            <text x="362.069px" y="450.431px" style="font-family:'UnifrakturMaguntia', sans-serif;font-size:833.416px;fill:rgb(47,47,47);">CD</text>
        </g>
    </g>
</svg>
